<svg width="17" height="23" viewBox="0 0 17 23" fill="none" xmlns="http://www.w3.org/2000/svg">
<path d="M8.12329 22L7.68493 21.5068C7.41096 21.2329 1 13.6712 1 9.12329C1 5.17808 4.17808 2 8.12329 2C12.0685 2 15.2466 5.17808 15.2466 9.12329C15.2466 13.6712 8.83562 21.2329 8.56164 21.5616L8.12329 22ZM8.12329 3.09589C4.78082 3.09589 2.09589 5.78082 2.09589 9.12329C2.09589 12.6301 6.69863 18.5479 8.12329 20.3014C9.54795 18.5479 14.1507 12.6301 14.1507 9.12329C14.1507 5.78082 11.4658 3.09589 8.12329 3.09589Z" fill="black"/>
<path d="M8.12329 11.863C6.58904 11.863 5.38356 10.6575 5.38356 9.12327C5.38356 7.58902 6.58904 6.38354 8.12329 6.38354C9.65753 6.38354 10.863 7.58902 10.863 9.12327C10.863 10.6575 9.65753 11.863 8.12329 11.863ZM8.12329 7.47944C7.19178 7.47944 6.47945 8.19176 6.47945 9.12327C6.47945 10.0548 7.19178 10.7671 8.12329 10.7671C9.05479 10.7671 9.76712 10.0548 9.76712 9.12327C9.76712 8.19176 9.05479 7.47944 8.12329 7.47944Z" fill="black"/>
</svg>
