<svg width="21" height="23" viewBox="0 0 21 23" fill="none" xmlns="http://www.w3.org/2000/svg">
<path d="M6.71516 3.09534L5.89299 3.33841C5.16093 3.55507 4.50716 3.97245 4.00864 4.54142C3.51013 5.1104 3.18761 5.80729 3.07904 6.55007C2.73848 8.87723 3.49987 11.5983 5.33571 14.7188C7.16695 17.8314 9.18282 19.8367 11.4016 20.7145C12.1146 20.9964 12.895 21.0716 13.6502 20.9309C14.4053 20.7903 15.1035 20.4398 15.6616 19.9211L16.2831 19.3427C16.6866 18.9679 16.9378 18.462 16.9899 17.9191C17.042 17.3762 16.8915 16.8332 16.5663 16.391L15.0114 14.2754C14.8012 13.9898 14.5052 13.7759 14.1648 13.6637C13.8245 13.5515 13.4569 13.5466 13.1136 13.6497L10.7618 14.3553L10.701 14.3665C10.4419 14.4037 9.8433 13.8534 9.09796 12.5863C8.31822 11.2607 8.15769 10.4853 8.37211 10.285L9.5681 9.19007C10.0055 8.78998 10.3042 8.26556 10.4225 7.69038C10.5407 7.1152 10.4725 6.51813 10.2274 5.98291L9.46834 4.32757C9.24008 3.82944 8.83502 3.42976 8.32869 3.20305C7.82235 2.97634 7.24928 2.93806 6.71631 3.09534H6.71516ZM8.42372 4.78895L9.18052 6.44429C9.32791 6.76527 9.36913 7.1235 9.29838 7.46865C9.22763 7.81379 9.04846 8.12851 8.78607 8.36859L7.58664 9.46465C6.81951 10.1781 7.07407 11.3957 8.10608 13.1489C9.07618 14.7987 9.96141 15.6134 10.9132 15.4716L11.0553 15.4423L13.4496 14.7255C13.5641 14.691 13.6866 14.6925 13.8002 14.7299C13.9137 14.7672 14.0124 14.8385 14.0826 14.9337L15.6375 17.0493C15.8003 17.2704 15.8757 17.542 15.8498 17.8135C15.8239 18.0851 15.6983 18.3382 15.4964 18.5257L14.8738 19.1041C14.4751 19.4744 13.9766 19.7246 13.4373 19.8249C12.898 19.9252 12.3407 19.8715 11.8316 19.6702C9.88458 18.9005 8.04416 17.0696 6.32988 14.1561C4.61101 11.2359 3.91497 8.75232 4.21425 6.70987C4.29173 6.1792 4.52208 5.68131 4.8782 5.2748C5.23432 4.8683 5.70138 4.57011 6.22438 4.41534L7.04655 4.17227C7.31311 4.09367 7.5997 4.11289 7.85287 4.22636C8.10605 4.33982 8.30854 4.53978 8.42257 4.78895H8.42372Z" fill="black"/>
</svg>
